<?xml version="1.0" standalone="no"?>
<!DOCTYPE svg PUBLIC "-//W3C//DTD SVG 20010904//EN"
 "http://www.w3.org/TR/2001/REC-SVG-20010904/DTD/svg10.dtd">
<svg version="1.0" xmlns="http://www.w3.org/2000/svg"
 width="604.000000pt" height="604.000000pt" viewBox="0 0 604.000000 604.000000"
 preserveAspectRatio="xMidYMid meet">
<metadata>
Created by potrace 1.11, written by Peter Selinger 2001-2013
</metadata>
<g transform="translate(0.000000,604.000000) scale(0.100000,-0.100000)"
fill="#000000" stroke="none">
<path d="M1005 5905 c-5 -2 -22 -6 -38 -9 -55 -13 -135 -113 -131 -166 1 -14
10 -52 19 -85 67 -234 -52 -480 -268 -555 -44 -15 -138 -33 -172 -32 -34 0
-115 16 -143 28 -17 7 -32 10 -32 7 0 -3 -7 0 -15 7 -21 17 -72 5 -128 -29
-65 -42 -81 -71 -81 -145 1 -126 42 -158 279 -211 32 -8 147 -18 180 -17 110
5 158 13 272 50 l82 26 50 -47 c28 -26 54 -47 58 -48 4 0 16 -2 26 -4 10 -2
31 0 47 5 25 7 33 5 50 -17 11 -14 20 -22 20 -18 0 4 20 -17 44 -47 25 -29 74
-82 110 -118 37 -36 81 -81 99 -100 183 -192 755 -788 837 -872 58 -60 104
-108 102 -108 -1 0 53 -57 120 -127 68 -71 162 -168 208 -216 47 -49 97 -98
112 -108 l27 -20 76 72 c77 73 88 97 61 131 -7 10 -114 122 -237 250 -123 128
-271 282 -329 343 -58 60 -113 115 -122 123 -10 7 -18 20 -18 29 0 9 -2 14 -5
11 -6 -5 -43 31 -169 164 -190 199 -523 547 -631 658 -129 133 -145 153 -139
185 14 73 14 76 -31 124 -49 53 -53 64 -36 106 21 49 42 109 47 130 2 11 6 31
9 45 29 145 24 259 -21 435 -26 101 -59 143 -126 158 -14 4 -32 9 -40 11 -7 3
-17 3 -23 1z"/>
<path d="M4991 5898 c-89 -24 -110 -60 -157 -268 -3 -14 -7 -83 -8 -155 -2
-138 16 -240 63 -348 l21 -48 -41 -42 c-45 -46 -63 -82 -53 -106 25 -63 28
-58 -208 -304 -122 -127 -331 -344 -462 -482 -132 -137 -292 -304 -355 -370
-329 -342 -585 -610 -666 -696 -49 -53 -95 -97 -100 -98 -6 0 -17 -12 -25 -25
-8 -14 -71 -82 -139 -153 -197 -203 -320 -330 -571 -593 -128 -135 -279 -292
-334 -350 -186 -193 -360 -374 -481 -501 -66 -68 -172 -179 -235 -244 -735
-766 -750 -781 -750 -795 0 -22 142 -160 164 -160 14 0 76 58 186 172 91 95
217 227 280 293 63 65 167 173 230 240 63 66 156 163 207 215 50 52 107 111
125 131 39 41 475 496 843 879 56 58 368 384 695 725 326 341 646 674 709 740
64 66 271 282 461 480 189 198 393 410 453 471 59 61 115 121 123 133 21 30
65 50 89 41 35 -13 69 0 115 46 25 24 51 44 58 44 6 0 46 -12 89 -26 90 -30
97 -32 183 -41 74 -8 92 -8 175 0 69 7 68 7 195 42 138 38 176 84 167 200 -5
55 -9 63 -48 98 -70 62 -118 76 -179 50 -29 -12 -70 -22 -125 -29 -57 -7 -55
-7 -110 0 -211 26 -348 159 -393 381 -11 54 -6 114 18 212 l21 82 -21 45 c-42
93 -122 136 -209 114z"/>
<path d="M2869 5511 c-64 -16 -171 -63 -219 -98 -112 -81 -229 -253 -255 -374
-20 -97 -21 -224 -2 -299 15 -59 21 -76 28 -85 4 -5 8 -13 9 -17 3 -20 38 -88
66 -128 40 -57 140 -151 196 -184 49 -28 178 -79 178 -70 0 4 6 2 13 -3 22
-17 179 -23 254 -10 104 18 206 62 282 122 133 104 231 272 249 425 10 88 4
212 -11 237 -3 5 -8 20 -11 34 -36 187 -229 381 -441 445 -79 23 -247 26 -336
5z"/>
<path d="M3288 2642 c-16 -9 -28 -20 -28 -25 0 -4 -17 -22 -37 -40 -20 -18
-44 -45 -54 -61 -17 -29 -17 -30 9 -59 27 -31 441 -465 627 -657 55 -58 308
-321 560 -585 253 -264 493 -515 535 -557 41 -43 100 -103 130 -135 271 -285
350 -363 366 -363 11 0 52 33 92 72 57 56 72 76 68 93 -5 19 -81 101 -479 515
-147 152 -256 266 -447 466 -246 257 -559 583 -642 669 -48 50 -107 110 -130
135 -50 53 -222 233 -401 418 -70 72 -131 132 -135 132 -4 0 -19 -8 -34 -18z"/>
</g>
</svg>
