<?xml version="1.0" encoding="UTF-8" standalone="no"?>
<!DOCTYPE svg PUBLIC "-//W3C//DTD SVG 1.1//EN" "http://www.w3.org/Graphics/SVG/1.1/DTD/svg11.dtd">
<svg version="1.1" xmlns="http://www.w3.org/2000/svg" xmlns:xlink="http://www.w3.org/1999/xlink" preserveAspectRatio="xMidYMid meet" viewBox="0 0 640 640" width="640" height="640"><defs><path d="M640 320C640 496.61 496.61 640 320 640C143.39 640 0 496.61 0 320C0 143.39 143.39 0 320 0C496.61 0 640 143.39 640 320Z" id="b5hC4bhGcx"></path><path d="M299.17 63.81C289.79 66.37 277.63 71.65 245.25 87.19C235.74 91.75 225.23 96.74 221.87 98.34C218.54 99.9 215.22 101.66 214.48 102.22C213.5 103.01 212.63 103.29 210.68 103.45C206.31 103.81 200.97 106.57 194.05 112.01C188.14 116.64 183.64 121.12 177.76 128.11C170.43 136.78 165.7 144.53 164.19 150.29C163.61 152.37 163.28 152.81 158.68 157.6C133.28 183.82 82.72 238.56 80.17 242.6C78.05 245.88 78.76 248.55 84.2 257.58C95.35 276.05 108.65 294.27 120.65 307.54C120.91 307.82 122.21 309.25 124.54 311.81C127.95 313.15 129.84 313.9 130.22 314.05C140.77 318.17 151.25 320.88 166.64 323.52C167.25 323.63 170.33 324.16 175.88 325.12C176.98 324.35 177.6 323.93 177.72 323.84C181.05 321.64 184.14 318.61 192.94 308.81C204.53 295.95 214.61 285.04 226.67 272.29C241.32 256.83 241.72 256.43 242.16 256.71C243.57 257.66 254.49 269.69 261.24 277.76C273.23 291.99 281.73 303.86 297.86 328.92C336.09 388.34 343.07 398.09 382.14 446.16C405.19 474.57 406.87 476.65 412.78 484.16C427.46 502.95 434.38 513.22 445.77 533.32C452.22 544.71 454.17 547.34 457.93 549.7C463.41 553.1 472.41 550.78 481.08 543.71C493.58 533.52 507.89 509.7 508.9 497.43C509.06 495.31 508.96 494.51 508.19 492.2C507.05 488.68 504.86 485.72 497.24 477.33C489.14 468.46 477.22 454.31 472.08 447.6C464.25 437.37 459.01 429.9 438.45 400.05C399.92 344.06 391.72 333.03 355.1 287.76C336.93 265.3 334.1 261.7 327.62 253.39C315.33 237.6 307.26 226.17 297.22 210.31C296.95 209.89 295.61 207.78 293.19 204C293.69 203.45 293.97 203.14 294.03 203.08C294.46 202.56 300.58 196.32 307.6 189.25C308.45 188.39 312.71 184.09 320.36 176.34C321.7 173.68 322.43 172.2 322.58 171.91C323.79 169.47 333.43 150.01 344.02 128.71C354.6 107.37 363.53 89.47 363.87 88.91C364.71 87.51 365.75 83.31 366.22 79.44C366.69 75.68 366.32 72.72 365.11 70.81C364.71 70.13 364.07 68.85 363.7 67.97C362.73 65.65 359 61.34 356.65 59.9C352.78 57.5 350.36 56.98 343.38 57.06C339.95 57.1 336.49 57.18 335.65 57.26C323.52 58.22 311.7 60.38 299.17 63.81Z" id="e5qOMHXcPN"></path></defs><g><g><g><use xlink:href="#b5hC4bhGcx" opacity="1" fill="#f1da36" fill-opacity="1"></use><g><filter id="shadow5288537" x="-126" y="-126" width="893" height="893" filterUnits="userSpaceOnUse" primitiveUnits="userSpaceOnUse"><feFlood></feFlood><feComposite in2="SourceAlpha" operator="out"></feComposite><feGaussianBlur stdDeviation="7.07"></feGaussianBlur><feOffset dx="1" dy="1" result="afterOffset"></feOffset><feFlood flood-color="#3b3b3b" flood-opacity="0.8"></feFlood><feComposite in2="afterOffset" operator="in"></feComposite><feMorphology operator="dilate" radius="20"></feMorphology><feComposite in2="SourceAlpha" operator="in"></feComposite></filter><path d="M640 320C640 496.61 496.61 640 320 640C143.39 640 0 496.61 0 320C0 143.39 143.39 0 320 0C496.61 0 640 143.39 640 320Z" id="a5Jk09d7kG" fill="white" fill-opacity="1" filter="url(#shadow5288537)"></path></g></g><g><use xlink:href="#e5qOMHXcPN" opacity="1" fill="#595858" fill-opacity="1.00"></use><g><use xlink:href="#e5qOMHXcPN" opacity="1" fill-opacity="0" stroke="#000000" stroke-width="1" stroke-opacity="0"></use></g></g></g></g></svg>